<?xml version="1.0" encoding="UTF-8"?>
<svg width="389px" height="64px" viewBox="0 0 389 64" version="1.1" xmlns="http://www.w3.org/2000/svg" xmlns:xlink="http://www.w3.org/1999/xlink">
    <title>Group</title>
    <g id="Page-1" stroke="none" stroke-width="1" fill="none" fill-rule="evenodd">
        <g id="Artboard" transform="translate(-156.000000, -86.000000)">
            <g id="Group" transform="translate(156.000000, 86.000000)">
                <g id="Berkeley_wordmark_blue_no_uc" transform="translate(0.000000, 7.000000)" fill="#003A70" fill-rule="nonzero">
                    <path d="M14.3110939,20.5132771 C12.4294026,20.5132771 11.8917766,20.7840368 11.8917766,22.2732157 L11.8917766,34.3929394 C11.8917766,35.0376055 12.0901862,38.7960092 12.6982157,39.4729087 C13.4342514,40.285188 15.5847556,40.762241 17.7416602,40.762241 C22.8619085,40.762241 26.6124903,37.2423638 26.6124903,31.3565618 C26.6124903,25.25802 21.6394492,20.5197237 14.3110939,20.5197237 M16.5320016,1.62455871 C12.0965865,1.62455871 11.8981769,2.2305449 11.8981769,3.55855718 L11.8981769,18.2569455 C11.8981769,19.3399847 12.7686191,19.2046048 14.3814973,19.2046048 C16.696122,19.1907377 19.0092473,19.3263959 21.306633,19.6107444 C23.2267261,18.1215656 25.4732351,16.8322333 25.4732351,11.4815042 C25.4732351,8.09700691 22.6506982,1.59877206 16.5128006,1.59877206 M17.3896431,41.9484267 C14.5671063,41.9484267 11.7445694,41.3037606 8.78762607,41.3037606 C5.96508922,41.3037606 4.48661753,41.5745203 2.33611327,41.5745203 C1.65768037,41.5745203 1.19045772,41.5100537 1.19045772,40.8331543 C1.19045772,40.1562548 1.60647789,40.0144282 3.09134988,40.0144282 C6.11869666,40.0144282 6.25310318,39.8790483 6.25310318,38.8604758 L6.25310318,7.71665388 C6.25310318,2.37237145 5.17145074,1.7599386 3.29615981,1.7599386 C0.268813033,1.7599386 0,1.68902533 0,0.883192632 C0,0.406139678 0.19840962,0.335226401 1.34406517,0.335226401 C3.43056633,0.335226401 5.51066718,0.406139678 7.86598138,0.406139678 C9.27404965,0.406139678 12.4998061,0 18.5480993,0 C27.2909232,0 31.0543057,4.51266309 31.0543057,9.34121259 C31.0543057,14.1697621 28.1549651,16.5163469 26.0044608,18.0313124 C24.7243988,18.914505 23.2523274,19.6623177 23.2523274,19.8621642 C23.2523274,20.0620107 24.5323894,20.3392172 25.8700543,21.0161167 C29.0318076,22.6406754 33,24.9421335 33,30.8343822 C33,38.4156562 26.7468968,42 17.4024438,42" id="Shape"></path>
                    <path d="M45.4384774,18.2130402 C40.9333137,18.2130402 39.5051638,24.7963103 39.5051638,25.5986859 C39.5051638,25.8893101 39.5051638,25.9461713 40.2192387,25.9461713 C43.3027442,25.9461713 46.5030983,25.1943391 50.9498377,24.5056861 C51.5989968,24.3919636 51.6639127,24.2719232 51.6639127,23.9307556 C51.6639127,22.4839525 48.1649454,18.2446298 45.4384774,18.2446298 M54.5721452,25.1943391 C49.8881129,26.2279451 45.1282859,26.9039119 40.3360873,27.2160728 C39.3883151,27.272934 39.2130422,27.5635583 39.2130422,28.890321 C39.2130422,36.8572151 45.5553261,38.9989891 50.0604898,38.9989891 C53.9554441,38.9989891 56.1106521,37.6090473 56.4676896,37.6090473 C56.8247271,37.6090473 56.9415757,37.9565327 56.9415757,38.0702552 C56.9415757,38.3608795 51.9041015,42 47.093833,42 C42.2835645,42 35,39.6307809 35,29.9896386 C35,21.8521607 40.6347005,17 46.0357037,17 C49.1192092,17 52.9167896,18.8953753 55.0525229,21.3340915 C56.0587194,22.4839525 57,23.8612585 57,24.3287844 C57,24.5625474 56.1690764,24.7963103 54.5721452,25.1374779" id="Shape"></path>
                    <path d="M75.7120153,23.2680652 C74.8918062,23.2680652 74.186939,20.8572709 71.2649439,20.8572709 C67.8687655,20.8572709 66.5807808,22.2651748 66.5807808,24.7145418 L66.5807808,36.8328011 C66.5807808,39.7064679 66.7537937,39.7064679 71.0662995,39.7064679 C72.5913759,39.7064679 72.6490469,39.8864739 72.6490469,40.4136343 C72.6490469,41.0565127 72.5913759,40.9986537 71.0662995,40.9986537 C70.2460904,40.9986537 66.3244655,40.7093584 64.4533634,40.7093584 C62.4605115,40.7093584 60.4740675,40.9986537 59.6538584,40.9986537 C58.3082027,40.9986537 58.186453,40.9986537 58.186453,40.4136343 C58.186453,39.8286148 58.2505318,39.7064679 59.6538584,39.7064679 C62.0504069,39.7064679 62.2170119,39.6486089 62.2170119,38.8257244 L62.2170119,22.7537624 C62.2170119,18.761487 62.3323538,18.6457689 59.0579252,18.6457689 C58.0006243,18.6457689 58.0006243,18.703628 58.0006243,18.0607495 C58.0006243,17.417871 57.9429534,17.180006 58.9361754,17.180006 C60.9290273,17.180006 62.0375912,17.2957241 63.2102339,17.2957241 C64.145785,17.2957241 65.2607567,17 66.1963078,17 C66.4333995,17 66.6640833,17.180006 66.6640833,17.6428785 C66.6640833,17.9386026 66.5487414,19.2243595 66.5487414,19.4043655 C66.5487414,19.9315259 66.6064124,20.3429681 66.8435041,20.3429681 C67.7213842,20.3429681 70.4703663,17.2892953 73.2513879,17.2892953 C74.3086888,17.2892953 77,18.5750523 77,20.1051031 C77,20.6965513 76.064449,23.2809228 75.7184232,23.2809228" id="Path"></path>
                    <path d="M103.33075,40.9808917 C102.62453,40.9808917 101.860527,40.9235669 101.334071,40.9235669 C100.634271,40.9235669 98.8687182,40.9808917 98.053354,40.9808917 C96.9940226,40.9808917 96.467567,39.522293 94.0022139,36.7324841 C91.5368607,33.9426752 89.0779278,30.2738854 88.7248174,30.2738854 C87.9972696,30.6063109 87.3083862,31.0163727 86.6703564,31.4968153 C85.7330086,32.0764331 84.9112243,32.4840764 84.9112243,33.0127389 L84.9112243,36.6751592 C84.9112243,39.4076433 84.7956608,39.4076433 88.4294886,39.4076433 C89.7777286,39.4076433 90.0152756,39.7006369 90.0152756,40.1656051 C90.0152756,40.7452229 89.7199469,40.7452229 88.4294886,40.7452229 C87.5499225,40.7452229 84.8534426,40.6305732 82.978747,40.6305732 C80.9820677,40.6305732 78.8120434,40.7452229 77.990259,40.7452229 C76.642019,40.7452229 76.2889086,40.6878981 76.2889086,40.1656051 C76.2889086,39.6433121 76.5842373,39.4076433 77.990259,39.4076433 C79.9869382,39.4076433 80.5133938,39.4076433 80.5133938,38.5350318 C80.5133938,36.8471338 80.6931592,19.6242038 80.6931592,7.32484076 C80.6931592,3.19745223 80.2180651,2.66878981 78.6386983,2.66878981 C76.2311269,2.66878981 76,2.49681529 76,2.08917197 C76,1.50955414 76.1155634,1.27388535 76.7575825,1.27388535 C80.9820677,1.27388535 84.4618109,0 84.969006,0 C85.2643347,0 85.3798982,0.171974522 85.3798982,0.522292994 C85.3798982,1.28025478 85.2643347,3.70700637 85.2643347,5.61783439 C85.2643347,14.4649682 84.9112243,20.9808917 84.9112243,30.4585987 C84.9112243,30.6942675 84.969006,30.8726115 85.1487713,30.8726115 C86.6125747,30.8726115 92.7117556,25.5159236 94.5928714,23.7707006 C96.8784592,21.6178344 97.4049148,20.6305732 97.4049148,19.4076433 C97.4049148,18.477707 97.2315696,18.3630573 94.6506531,18.3630573 C93.771087,18.3630573 93.4757582,18.2420382 93.4757582,17.7261146 C93.4757582,17.2101911 93.771087,17.1464968 94.5286695,17.1464968 C95.119327,17.1464968 96.2300199,17.3184713 96.9362409,17.3184713 C97.6424618,17.3184713 101.096524,17.1464968 101.802745,17.1464968 C102.271419,17.1464968 102.508966,17.2038217 102.508966,17.3757962 C102.508966,17.9044586 100.512287,20.4012739 98.695373,22.1464968 C95.761346,25 92.1275183,27.5605096 92.1275183,27.9681529 C92.1275183,28.4904459 93.1804295,29.5987261 97.2636706,34.4840764 C99.2539296,36.866242 101.115785,39.7197452 103.125304,39.7197452 C104.531326,39.7197452 105,40.0127389 105,40.477707 C105,40.9426752 104.589108,41 103.30507,41" id="Path"></path>
                    <path d="M113.438477,18.2130402 C108.933314,18.2130402 107.511655,24.7963103 107.511655,25.5986859 C107.511655,25.8893101 107.511655,25.9461713 108.219239,25.9461713 C111.302744,25.9461713 114.503098,25.1943391 118.956329,24.5056861 C119.605488,24.3919636 119.663913,24.2719232 119.663913,23.9307556 C119.663913,22.4839525 116.164945,18.2446298 113.438477,18.2446298 M122.572145,25.1943391 C117.89034,26.2281267 113.132655,26.9040975 108.342579,27.2160728 C107.388315,27.272934 107.213042,27.5635583 107.213042,28.890321 C107.213042,36.8572151 113.555326,38.9989891 118.06049,38.9989891 C121.955444,38.9989891 124.110652,37.6090473 124.46769,37.6090473 C124.824727,37.6090473 124.941576,37.9565327 124.941576,38.0702552 C124.941576,38.3608795 119.904102,42 115.100325,42 C110.296548,42 103,39.6307809 103,29.9896386 C103,21.8521607 108.634701,17 114.035704,17 C117.119209,17 120.91679,18.8953753 123.052523,21.3340915 C124.058719,22.4839525 125,23.8612585 125,24.3287844 C125,24.5625474 124.175568,24.7963103 122.572145,25.1374779" id="Shape"></path>
                    <path d="M135.489731,40.9935968 C134.619293,40.9935968 133.342227,40.8783383 132.31295,40.8783383 C130.336992,40.8783383 127.261868,40.9935968 126.448612,40.9935968 C125.114364,40.9935968 125,40.8783383 125,40.4109011 C125,39.943464 125.057182,39.6489146 126.448612,39.6489146 C128.831198,39.6489146 129.816,39.7065438 129.816,38.6564111 L129.816,6.42886147 C129.816,2.74059035 129.466554,2.74059035 126.85524,2.74059035 C125.813256,2.74059035 125.228728,2.62533188 125.228728,1.97860378 C125.228728,1.33187568 125.692538,1.33827893 126.683694,1.2806497 C129.084304,1.13205051 131.459584,0.702273937 133.761562,0 C134.053826,0 134.339736,0.29454943 134.339736,0.934874278 C134.339736,1.57519913 134.053826,3.74590036 134.053826,5.50039044 C134.053826,27.7836951 133.761562,32.394034 133.761562,34.1037014 C133.761562,38.9573637 134.16819,39.5976886 135.216528,39.5976886 C138.113752,39.5976886 137.999388,39.9498672 137.999388,40.4173044 C137.999388,41 137.59276,41 135.502438,41" id="Path"></path>
                    <path d="M147.438477,18.2130402 C142.933314,18.2130402 141.505164,24.7963103 141.505164,25.5986859 C141.505164,25.8893101 141.505164,25.9461713 142.219239,25.9461713 C145.302744,25.9461713 148.503098,25.1943391 152.949838,24.5056861 C153.598997,24.3919636 153.663913,24.2719232 153.663913,23.9307556 C153.663913,22.4839525 150.164945,18.2446298 147.438477,18.2446298 M156.572145,25.1943391 C151.88822,26.228503 147.128347,26.9044762 142.336087,27.2160728 C141.388315,27.272934 141.213042,27.5635583 141.213042,28.890321 C141.213042,36.8572151 147.555326,38.9989891 152.06049,38.9989891 C155.955444,38.9989891 158.110652,37.6090473 158.46769,37.6090473 C158.824727,37.6090473 158.941576,37.9565327 158.941576,38.0702552 C158.941576,38.3608795 153.89761,42 149.100325,42 C144.303039,42 137,39.6307809 137,29.9896386 C137,21.8521607 142.634701,17 148.035704,17 C151.119209,17 154.91679,18.8953753 157.052523,21.3340915 C158.058719,22.4839525 159,23.8612585 159,24.3287844 C159,24.5625474 158.169076,24.7963103 156.572145,25.1374779" id="Shape"></path>
                    <path d="M182.484133,18.5292402 C181.20492,18.5292402 178.646494,25.6570549 174.009348,36.9967601 C170.325215,46.0685242 167.696433,50.8441601 165.828782,54.7514985 C165.189176,56.0474648 164.485609,56.1122631 163.2,56.2936984 C161.447478,56.5269723 161.03813,57 159.752522,57 C158.761132,57 158.17909,56.7084076 158.17909,56.4103353 C158.17909,56.1122631 160.923001,55.7040337 162.905781,53.1704196 C165.010086,50.5072088 170.037392,43.5219504 170.037392,41.7464766 C170.037392,41.0984934 165.36187,30.1410983 162.151046,22.4495383 C160.686347,18.8985906 160.276999,18.6005184 159.228044,18.6005184 C158.057565,18.6005184 158,18.5421999 158,18.0108537 C158,17.4795075 158.17909,17.1814353 159.228044,17.1814353 C160.865437,17.1814353 161.274785,17.2980723 162.675523,17.2980723 C164.312915,17.2980723 166.35326,17.1231168 168.227306,17.1231168 C169.448954,17.1231168 169.685609,17.3563907 169.685609,18.0108537 C169.685609,18.5421999 169.448954,18.6005184 168.227306,18.6005184 C166.820172,18.6005184 166.474785,18.9569091 166.474785,20.3176737 C166.474785,22.0348291 167.990652,24.1083752 171.495695,33.2190183 C171.962608,34.463146 172.666175,35.4675198 172.896433,35.4675198 C173.305781,35.4675198 173.657565,34.6445812 174.59139,31.8582537 C175.992128,27.6010044 178.096433,21.4451644 178.096433,20.615746 C178.096433,18.8402722 178.096433,18.4838814 176.113653,18.4838814 C174.303567,18.4838814 174.066913,18.4838814 174.066913,17.8942168 C174.066913,17.1231168 174.239606,17.1231168 175.294957,17.1231168 C176.874785,17.1231168 177.923739,17.2397538 179.503567,17.2397538 C180.379828,17.2397538 181.95326,17 182.771956,17 C183.705781,17 184,17.0583185 184,17.7127815 C184,18.2441277 183.181304,18.5421999 182.484133,18.5421999" id="Path"></path>
                </g>
                <text id="Extension" font-family="OpenSans-Regular, Open Sans" font-size="44" font-weight="normal" letter-spacing="-0.6" fill="#C4820E">
                    <tspan x="193" y="47">Extension</tspan>
                </text>
            </g>
        </g>
    </g>
</svg>